# xmcd
#
# Track frame offsets:
#	150
#	12566
#	24815
#	33838
#	43815
#	54875
#	64074
#	74266
#	85215
#	94341
#	104277
#	117153
#
# Disc length: 1693 seconds
#
# Revision: 1
# Processed by: cddbd v1.5.2PL0 Copyright (c) Steve Scherf et al.
# Submitted via: audiograbber 1.83.01
#
DISCID=94069b0c
DTITLE=David Houston - Sings Twelve Great Country Hits
DYEAR=1965
DGENRE=Country
TTITLE0=Once A Day
TTITLE1=Four Strong Winds
TTITLE2=King Of The Road
TTITLE3=Love's Gonna Live Here
TTITLE4=You're The Only World I Know
TTITLE5=Invisible Tears
TTITLE6=I've Got A Tiger By The Tail
TTITLE7=I Don't Love You Anymore
TTITLE8=Together Again
TTITLE9=I Guess I'm Crazy
TTITLE10=Saginaw, Michigan
TTITLE11=Thanks A Lot
EXTD=
EXTT0=
EXTT1=
EXTT2=
EXTT3=
EXTT4=
EXTT5=
EXTT6=
EXTT7=
EXTT8=
EXTT9=
EXTT10=
EXTT11=
PLAYORDER=
